<?xml version="1.0" standalone="no"?>
<!DOCTYPE svg PUBLIC "-//W3C//DTD SVG 20010904//EN"
 "http://www.w3.org/TR/2001/REC-SVG-20010904/DTD/svg10.dtd">
<svg version="1.0" xmlns="http://www.w3.org/2000/svg"
 width="512.000000pt" height="512.000000pt" viewBox="0 0 512.000000 512.000000"
 preserveAspectRatio="xMidYMid meet">
<metadata>
Created by potrace 1.14, written by Peter Selinger 2001-2017
</metadata>
<g transform="translate(0.000000,512.000000) scale(0.100000,-0.100000)"
fill="#000000" stroke="none">
<path d="M535 5114 c-135 -29 -231 -80 -322 -170 -93 -92 -136 -175 -163 -307
-13 -62 -17 -3139 -5 -3213 32 -189 152 -351 320 -433 132 -64 136 -65 688
-66 l497 0 0 37 0 38 71 0 c64 0 70 -2 65 -18 -4 -10 -7 -43 -8 -73 -5 -219
124 -411 331 -490 108 -42 273 -36 378 13 41 19 63 18 63 -4 0 -6 32 -94 70
-197 78 -205 99 -237 154 -228 17 3 117 37 221 77 105 39 215 81 245 92 30 12
69 27 85 33 17 7 64 25 105 40 41 15 103 38 137 51 l62 23 27 -47 c37 -63 106
-126 178 -162 l60 -30 13 37 c7 21 13 39 13 41 0 1 85 2 189 2 176 0 192 -2
242 -24 62 -27 138 -46 189 -47 60 -2 60 -2 54 36 l-5 35 214 0 214 0 -4 -34
c-2 -21 2 -38 9 -43 7 -4 46 -8 86 -8 57 0 72 3 73 15 0 8 0 265 0 570 0 467
-2 564 -15 612 -18 67 -53 126 -105 181 -27 29 -424 312 -585 417 -130 85
-173 119 -188 150 -10 19 -54 134 -99 255 -44 121 -98 265 -120 319 -21 55
-39 105 -39 111 0 7 -11 24 -25 39 -28 30 -69 34 -118 12 -145 -66 -260 -116
-263 -113 -2 2 5 26 16 54 10 28 22 74 26 102 l7 51 38 0 39 0 0 43 0 42 248
0 c136 -1 260 1 276 5 16 3 38 17 48 31 18 24 19 56 19 818 0 554 -4 811 -12
854 -37 199 -187 370 -396 450 l-58 22 -1610 1 c-885 1 -1619 0 -1630 -2z
m2106 -2183 c3 0 5 -38 6 -84 0 -191 108 -363 278 -446 33 -16 74 -32 91 -36
30 -6 32 -4 41 32 5 21 12 37 16 36 4 -2 38 -3 75 -3 l68 0 32 -74 c58 -136
62 -219 13 -321 -36 -75 -86 -126 -159 -162 -49 -24 -69 -28 -142 -28 -71 0
-94 4 -140 26 -115 54 -183 158 -195 299 -4 53 -10 69 -31 88 -34 30 -64 28
-159 -9 -44 -17 -105 -40 -135 -51 -30 -11 -64 -24 -75 -29 -11 -4 -76 -29
-145 -55 -69 -25 -139 -53 -157 -61 -32 -15 -55 -57 -48 -90 3 -14 126 -348
160 -435 6 -16 0 -18 -62 -18 -38 0 -92 7 -121 15 l-51 15 15 35 c19 47 18 52
-16 70 -66 34 -141 136 -157 215 -13 61 -4 150 20 204 72 157 235 235 398 190
84 -23 107 -21 138 10 l26 26 1 312 c1 172 2 318 3 323 0 6 75 10 204 9 111
-1 205 -2 208 -3z"/>
</g>
</svg>
